<svg xmlns="http://www.w3.org/2000/svg" xmlns:xlink="http://www.w3.org/1999/xlink" width="252.338" height="289" viewBox="0 0 252.338 289">
  <defs>
    <linearGradient id="linear-gradient" x1="0.37" y1="0.191" x2="0.893" y2="0.841" gradientUnits="objectBoundingBox">
      <stop offset="0" stop-color="#293786"/>
      <stop offset="1" stop-color="#a21d2e"/>
    </linearGradient>
  </defs>
  <path id="Path_705" data-name="Path 705" d="M-174.058,67.724l9.159-61.3-52.687,22.45A229.63,229.63,0,0,0-174.058,67.724ZM-109.515-50.8-164.974-87.1l11.8,72.539ZM-103.8-99h-57.52l57.52,37.64Zm0,123.754V-40l-43.56,36.161Zm-61.648-40.237-11.624-71.477-38.876,39.353Zm12.579,22.338-9.589,64.178,53.732-35.2Zm-71.118-45.4V18.593L-170.2-4.326ZM-18.563-86.959-30.187-15.482l50.5-32.124ZM-91.837-99v37.64L-34.316-99ZM-48.275-3.839-91.837-40V24.754ZM-181.993-99h-41.994v42.51ZM28.351-38.542-25.437-4.326,28.351,18.593Zm0-17.948V-99H-13.643ZM-16.508,90.864A251.112,251.112,0,0,1-86.775,121.7V190A126.173,126.173,0,0,0,28.351,64.316V54.5a251.92,251.92,0,0,1-44.86,36.362ZM-108.861,121.7a251.1,251.1,0,0,1-70.265-30.834A252,252,0,0,1-223.987,54.5v9.814A126.176,126.176,0,0,0-108.861,190V121.7Zm5.062-74.792L-154.22,79.938A228.846,228.846,0,0,0-103.8,100.193V46.905ZM21.951,28.87-30.736,6.42l9.159,61.3A229.628,229.628,0,0,0,21.951,28.87ZM-91.837,46.905v53.288A228.851,228.851,0,0,0-41.415,79.938Zm49.07-40.05L-86.91,35.831l53.733,35.2ZM-86.12-50.8l43.662,36.246,11.8-72.539Z" transform="translate(223.987 99)" fill="url(#linear-gradient)"/>
</svg>
